<svg width="39" height="31" viewBox="0 0 39 31" fill="none" xmlns="http://www.w3.org/2000/svg">
<path d="M34.8335 0H4.16683C3.15017 0 2.17514 0.403868 1.45625 1.12276C0.737364 1.84165 0.333496 2.81667 0.333496 3.83333V26.8333C0.333496 27.85 0.737364 28.825 1.45625 29.5439C2.17514 30.2628 3.15017 30.6667 4.16683 30.6667H34.8335C35.8502 30.6667 36.8252 30.2628 37.5441 29.5439C38.263 28.825 38.6668 27.85 38.6668 26.8333V3.83333C38.6668 2.81667 38.263 1.84165 37.5441 1.12276C36.8252 0.403868 35.8502 0 34.8335 0ZM34.8335 13.4167H4.16683V7.66667H34.8335V13.4167Z" fill="#A4BBCD"/>
</svg>
