<svg width="47" height="47" viewBox="0 0 47 47" fill="none" xmlns="http://www.w3.org/2000/svg">
<path d="M14.1 37.6C11.515 37.6 9.4235 39.715 9.4235 42.3C9.4235 44.885 11.515 47 14.1 47C16.685 47 18.8 44.885 18.8 42.3C18.8 39.715 16.685 37.6 14.1 37.6ZM0 0V4.7H4.7L13.16 22.5365L9.9875 28.294C9.6115 28.952 9.4 29.7275 9.4 30.55C9.4 33.135 11.515 35.25 14.1 35.25H42.3V30.55H15.087C14.758 30.55 14.4995 30.2915 14.4995 29.9625L14.57 29.6805L16.685 25.85H34.1925C35.955 25.85 37.506 24.8865 38.305 23.4295L46.718 8.178C46.906 7.849 47 7.4495 47 7.05C47 5.7575 45.9425 4.7 44.65 4.7H9.8935L7.6845 0H0ZM37.6 37.6C35.015 37.6 32.9235 39.715 32.9235 42.3C32.9235 44.885 35.015 47 37.6 47C40.185 47 42.3 44.885 42.3 42.3C42.3 39.715 40.185 37.6 37.6 37.6Z" fill="#DEE5EA"/>
</svg>
