<svg width="105" height="32" viewBox="0 0 105 32" fill="none" xmlns="http://www.w3.org/2000/svg">
<path d="M15.372 15.844H29.376C29.352 17.836 29.184 19.708 28.872 21.46C28.56 23.188 27.804 24.904 26.604 26.608C25.284 28.456 23.652 29.8 21.708 30.64C19.788 31.48 17.688 31.9 15.408 31.9C11.136 31.9 7.656 30.592 4.968 27.976C2.28 25.336 0.936 21.88 0.936 17.608C0.936 13.192 2.292 9.652 5.004 6.988C7.74 4.324 11.292 2.992 15.66 2.992C18.444 2.992 20.88 3.628 22.968 4.9C25.08 6.148 26.724 8.044 27.9 10.588L21.204 13.36C20.724 12.088 19.98 11.056 18.972 10.264C17.964 9.472 16.752 9.076 15.336 9.076C13.152 9.076 11.46 9.892 10.26 11.524C9.084 13.156 8.436 14.944 8.316 16.888C8.292 17.008 8.28 17.14 8.28 17.284C8.28 17.404 8.28 17.524 8.28 17.644C8.28 17.668 8.28 17.704 8.28 17.752C8.28 17.776 8.28 17.812 8.28 17.86C8.328 19.924 8.964 21.82 10.188 23.548C11.412 25.276 13.164 26.14 15.444 26.14C16.98 26.14 18.276 25.744 19.332 24.952C20.388 24.16 20.988 22.984 21.132 21.424L15.372 21.388V15.844ZM51.4367 22.18V22.864H37.6487C37.6487 24.208 37.9967 25.24 38.6927 25.96C39.3887 26.656 40.4087 27.004 41.7527 27.004C42.4487 27.004 43.0487 26.872 43.5527 26.608C44.0807 26.344 44.5247 25.912 44.8847 25.312L51.1847 25.276C50.6567 27.484 49.4807 29.092 47.6567 30.1C45.8567 31.108 43.9007 31.612 41.7887 31.612C38.7407 31.612 36.1967 30.784 34.1567 29.128C32.1167 27.448 31.0967 25.012 31.0967 21.82C31.0967 18.748 32.0447 16.336 33.9407 14.584C35.8607 12.832 38.3207 11.956 41.3207 11.956C44.5367 11.956 47.0207 12.88 48.7727 14.728C50.5487 16.576 51.4367 19.072 51.4367 22.216V22.18ZM37.7567 19.084H45.3527C45.1847 18.22 44.7407 17.524 44.0207 16.996C43.3247 16.468 42.5327 16.204 41.6447 16.204C40.6847 16.204 39.8447 16.456 39.1247 16.96C38.4047 17.44 37.9487 18.16 37.7567 19.12V19.084ZM64.1933 11.92C67.1693 11.944 69.7613 12.82 71.9693 14.548C74.2013 16.252 75.3173 18.676 75.3173 21.82C75.3173 24.94 74.2013 27.352 71.9693 29.056C69.7613 30.76 67.1693 31.612 64.1933 31.612C61.2413 31.612 58.6493 30.772 56.4173 29.092C54.1853 27.388 53.0693 24.964 53.0693 21.82C53.0693 18.676 54.1733 16.252 56.3813 14.548C58.6133 12.82 61.2173 11.956 64.1933 11.956V11.92ZM64.1933 17.608C62.8733 17.632 61.8413 18.064 61.0973 18.904C60.3533 19.72 59.9813 20.692 59.9813 21.82C59.9813 22.996 60.3533 23.98 61.0973 24.772C61.8413 25.564 62.8733 25.96 64.1933 25.96C65.5373 25.96 66.5693 25.564 67.2893 24.772C68.0333 23.98 68.4053 22.996 68.4053 21.82C68.4053 20.692 68.0333 19.72 67.2893 18.904C66.5693 18.064 65.5373 17.644 64.1933 17.644V17.608ZM85.4733 17.932V31H78.9213V17.932H76.6173V12.532H78.9213V10.192C78.9213 9.208 78.9693 8.296 79.0653 7.456C79.1613 6.616 79.4373 5.8 79.8933 5.008C80.0133 4.792 80.1453 4.588 80.2893 4.396C80.4333 4.18 80.6013 3.964 80.7933 3.748C81.6093 2.788 82.5693 2.056 83.6733 1.552C84.8013 1.048 85.9893 0.795998 87.2373 0.795998C87.7413 0.795998 88.2213 0.843998 88.6773 0.939999C89.1333 1.036 89.5893 1.204 90.0453 1.444V7.06C89.9493 7.036 89.8413 7 89.7213 6.952C89.6253 6.904 89.5173 6.868 89.3973 6.844C89.1333 6.724 88.8693 6.64 88.6053 6.592C88.3413 6.52 88.0533 6.484 87.7413 6.484C86.9013 6.484 86.3133 6.736 85.9773 7.24C85.6413 7.744 85.4733 8.524 85.4733 9.58V12.532H90.0453V17.932H85.4733ZM99.4303 17.932V31H92.8783V17.932H90.5743V12.532H92.8783V10.192C92.8783 9.208 92.9263 8.296 93.0223 7.456C93.1183 6.616 93.3943 5.8 93.8503 5.008C93.9703 4.792 94.1023 4.588 94.2463 4.396C94.3903 4.18 94.5583 3.964 94.7503 3.748C95.5663 2.788 96.5263 2.056 97.6303 1.552C98.7583 1.048 99.9463 0.795998 101.194 0.795998C101.698 0.795998 102.178 0.843998 102.634 0.939999C103.09 1.036 103.546 1.204 104.002 1.444V7.06C103.906 7.036 103.798 7 103.678 6.952C103.582 6.904 103.474 6.868 103.354 6.844C103.09 6.724 102.826 6.64 102.562 6.592C102.298 6.52 102.01 6.484 101.698 6.484C100.858 6.484 100.27 6.736 99.9343 7.24C99.5983 7.744 99.4303 8.524 99.4303 9.58V12.532H104.002V17.932H99.4303Z" fill="#DEE5EA"/>
</svg>
