<svg width="25" height="25" viewBox="0 0 25 25" fill="none" xmlns="http://www.w3.org/2000/svg">
<path d="M8.75 12.1875C7.8875 12.1875 7.1875 12.8875 7.1875 13.75C7.1875 14.6125 7.8875 15.3125 8.75 15.3125C9.6125 15.3125 10.3125 14.6125 10.3125 13.75C10.3125 12.8875 9.6125 12.1875 8.75 12.1875ZM16.25 12.1875C15.3875 12.1875 14.6875 12.8875 14.6875 13.75C14.6875 14.6125 15.3875 15.3125 16.25 15.3125C17.1125 15.3125 17.8125 14.6125 17.8125 13.75C17.8125 12.8875 17.1125 12.1875 16.25 12.1875ZM12.5 0C5.6 0 0 5.6 0 12.5C0 19.4 5.6 25 12.5 25C19.4 25 25 19.4 25 12.5C25 5.6 19.4 0 12.5 0ZM12.5 22.5C6.9875 22.5 2.5 18.0125 2.5 12.5C2.5 12.1375 2.525 11.775 2.5625 11.425C5.5125 10.1125 7.85 7.7 9.075 4.7125C11.3375 7.9125 15.0625 10 19.275 10C20.25 10 21.1875 9.8875 22.0875 9.675C22.35 10.5625 22.5 11.5125 22.5 12.5C22.5 18.0125 18.0125 22.5 12.5 22.5Z" fill="#DEE5EA"/>
</svg>
